<svg width="33" height="32" viewBox="0 0 33 32" fill="none" xmlns="http://www.w3.org/2000/svg">
<path d="M16.4957 10.6644C13.5578 10.6644 11.1602 13.062 11.1602 15.9999C11.1602 18.9379 13.5578 21.3355 16.4957 21.3355C19.4336 21.3355 21.8312 18.9379 21.8312 15.9999C21.8312 13.062 19.4336 10.6644 16.4957 10.6644ZM32.4982 15.9999C32.4982 13.7905 32.5182 11.6011 32.3941 9.39561C32.2701 6.83392 31.6857 4.56043 29.8125 2.6872C27.9352 0.809966 25.6657 0.229585 23.104 0.105503C20.8946 -0.0185785 18.7052 0.0014347 16.4997 0.0014347C14.2902 0.0014347 12.1008 -0.0185785 9.89536 0.105503C7.33368 0.229585 5.06019 0.813968 3.18696 2.6872C1.30972 4.56443 0.72934 6.83392 0.605259 9.39561C0.481177 11.6051 0.501191 13.7945 0.501191 15.9999C0.501191 18.2054 0.481177 20.3988 0.605259 22.6043C0.72934 25.166 1.31372 27.4395 3.18696 29.3127C5.06419 31.1899 7.33368 31.7703 9.89536 31.8944C12.1048 32.0185 14.2943 31.9985 16.4997 31.9985C18.7092 31.9985 20.8986 32.0185 23.104 31.8944C25.6657 31.7703 27.9392 31.1859 29.8125 29.3127C31.6897 27.4355 32.2701 25.166 32.3941 22.6043C32.5222 20.3988 32.4982 18.2094 32.4982 15.9999ZM16.4957 24.2093C11.9527 24.2093 8.28631 20.5429 8.28631 15.9999C8.28631 11.457 11.9527 7.79055 16.4957 7.79055C21.0387 7.79055 24.7051 11.457 24.7051 15.9999C24.7051 20.5429 21.0387 24.2093 16.4957 24.2093ZM25.0413 9.37159C23.9806 9.37159 23.1241 8.51503 23.1241 7.45433C23.1241 6.39363 23.9806 5.53707 25.0413 5.53707C26.102 5.53707 26.9586 6.39363 26.9586 7.45433C26.9589 7.7062 26.9095 7.95565 26.8133 8.18841C26.717 8.42116 26.5758 8.63265 26.3977 8.81074C26.2196 8.98884 26.0082 9.13005 25.7754 9.22629C25.5426 9.32253 25.2932 9.37191 25.0413 9.37159Z" fill="white"/>
</svg>
